# xmcd
#
# Track frame offsets:
#	150
#	10987
#	29785
#	50835
#	63120
#	82325
#	92815
#	118055
#	130282
#	145377
#	185905
#	192912
#	205535
#	222525
#	256160
#
# Disc length: 4212 seconds
#
# Revision: 8
# Processed by: cddbd v1.5.2PL0 Copyright (c) Steve Scherf et al.
# Submitted via: audiograbber 1.83.01
#
DISCID=ee10720f
DTITLE=Stevie Ray Vaughan and Double Trouble - In Step (Expanded Edition 1999)
DYEAR=1989
DGENRE=Blues
TTITLE0=The House Is Rockin'
TTITLE1=Crossfire
TTITLE2=Tightrope
TTITLE3=Let Me Love You Baby
TTITLE4=Leave My Girl Alone
TTITLE5=Travis Walk
TTITLE6=Wall Of Denial
TTITLE7=Scratch-N-Sniff
TTITLE8=Love Me Darlin'
TTITLE9=Riviera Paradise
TTITLE10=SRV Speaks
TTITLE11=The House Is Rockin' (Live)
TTITLE12=Let Me Love You Baby (Live )
TTITLE13=Texas Flood (Live )
TTITLE14=Life Without You (Live)
EXTD="In Step" won Stevie Ray his second Grammy Award for Best Contemporary Blu
EXTD=es\n
EXTT0=
EXTT1=
EXTT2=
EXTT3=
EXTT4=
EXTT5=
EXTT6=
EXTT7=
EXTT8=
EXTT9=
EXTT10=
EXTT11=
EXTT12=
EXTT13=
EXTT14=
PLAYORDER=
